<svg width="103" height="19" viewBox="0 0 103 19" fill="none" xmlns="http://www.w3.org/2000/svg">
<g id="Nav-Logo">
<path id="Vector" d="M17.5406 10.5556C17.5406 15.6222 14.0733 19 8.97426 19C3.46733 18.7889 0 15.2 0 9.5C0 3.8 3.46733 0 8.97426 0C13.2574 0 16.5208 2.32222 17.1327 5.91111H14.2772C13.6653 3.8 11.4218 2.32222 8.97426 2.32222C5.30297 2.32222 2.85545 5.06667 2.85545 9.28889C2.85545 13.5111 5.30297 16.2556 9.17822 16.2556C12.4416 16.2556 14.8891 14.1444 15.0931 10.9778H7.54654V8.86666H17.3366C17.5406 9.5 17.5406 9.92222 17.5406 10.5556Z" fill="#FE142F"/>
<path id="Vector_2" d="M24.2714 10.9778L28.9625 10.5555V9.92221C28.9625 8.23333 27.7388 7.38888 25.9031 7.38888C24.0675 7.38888 22.8437 8.44444 23.0477 9.92221H20.3962C20.3962 6.96666 22.4358 5.27777 25.9031 5.27777C29.1665 5.27777 31.2061 6.96666 31.2061 10.1333V18.7889H28.9625L28.7586 16.2555C28.1467 17.9444 26.3111 19 24.0675 19C21.62 19 19.9883 17.5222 19.9883 15.2C20.1922 12.6667 21.62 11.4 24.2714 10.9778ZM25.0873 16.6778C27.3309 16.6778 28.9625 15.2 28.9625 12.8778V12.0333L24.8833 12.6667C23.4556 12.8778 22.8437 13.7222 22.8437 14.7778C22.6398 16.0444 23.6596 16.6778 25.0873 16.6778Z" fill="#FE142F"/>
<path id="Vector_3" d="M53.6417 9.92221V18.5778H50.9902V10.1333C50.9902 8.23333 49.9704 7.38888 48.5427 7.38888C46.707 7.38888 45.6872 8.86666 45.6872 10.9778V18.3667H43.2397V10.5555C43.2397 8.44444 42.4238 7.59999 40.7922 7.59999C38.9565 7.59999 37.9367 8.86666 37.9367 10.9778V18.5778H35.4892V5.48888H37.7328L37.9367 7.17777C38.7526 5.9111 39.9763 5.27777 41.608 5.27777C43.4437 5.27777 44.8714 6.12222 45.2793 7.8111C45.8912 6.33333 47.5229 5.27777 49.3585 5.27777C52.01 5.27777 53.6417 6.96666 53.6417 9.92221Z" fill="#FE142F"/>
<path id="Vector_4" d="M69.3465 14.7777C68.7346 17.3111 66.2871 19 63.2276 19C59.1484 19 56.4969 16.2555 56.4969 12.2444C56.4969 8.23331 59.1484 5.48886 63.0237 5.48886C66.695 5.48886 69.1425 7.81108 69.1425 11.4C69.1425 11.8222 69.1425 12.0333 68.9385 12.4555H59.1484V12.6666C59.1484 15.2 60.7801 16.6777 63.2276 16.6777C65.0633 16.6777 66.2871 15.8333 66.695 14.7777H69.3465ZM59.1484 10.5555H66.491C66.491 8.86664 65.0633 7.38886 63.0237 7.38886C60.9841 7.38886 59.5564 8.65553 59.1484 10.5555Z" fill="#FE142F"/>
<path id="Vector_5" d="M87.9069 2.95555C86.2752 1.05556 83.8277 0 81.3802 0C76.2812 0 72.202 4.22222 72.202 9.5C72.202 14.7778 76.2812 19 81.3802 19C84.2356 19 86.6832 17.7333 88.3148 15.6222L81.3802 9.5L87.9069 2.95555Z" fill="#FE142F"/>
<path id="Vector_6" d="M91.5782 5.48888H93.8218L94.0257 7.59999C94.8416 6.12221 96.4732 5.27777 98.3089 5.27777C101.368 5.27777 103 7.17777 103 10.3444V18.5778H100.348V10.7667C100.348 8.65555 99.1247 7.59999 97.493 7.59999C95.4534 7.59999 94.0257 9.07777 94.0257 11.6111V18.5778H91.5782V5.48888Z" fill="#FE142F"/>
</g>
</svg>
