<svg width="47" height="24" viewBox="0 0 47 24" fill="none" xmlns="http://www.w3.org/2000/svg">
<path d="M22.4745 13.1972C22.4745 19.5319 18.0319 23.755 11.4986 23.755C4.44264 23.4911 0 19.004 0 11.8775C0 4.75101 4.44264 0 11.4986 0C16.9866 0 21.1679 2.90339 21.9519 7.39046H18.2932C17.5092 4.75101 14.6346 2.90339 11.4986 2.90339C6.79462 2.90339 3.65864 6.33468 3.65864 11.6136C3.65864 16.8925 6.79462 20.3238 11.7599 20.3238C15.9412 20.3238 19.0772 17.6843 19.3385 13.7251H9.66927V11.0857H22.2132C22.4745 11.8775 22.4745 12.4054 22.4745 13.1972Z" fill="#FE142F"/>
<path d="M45.6339 3.69523C43.5433 1.31972 40.4073 0 37.2713 0C30.738 0 25.5114 5.2789 25.5114 11.8775C25.5114 18.4761 30.738 23.755 37.2713 23.755C40.93 23.755 44.066 22.1714 46.1566 19.5319L37.2713 11.8775L45.6339 3.69523Z" fill="#FF001B"/>
</svg>
